<svg id="tcp_logo_exp" xmlns="http://www.w3.org/2000/svg" width="240" height="50" viewBox="0 0 240 50">
  <path id="bg" d="M0,0H240V50H0Z" fill="#fff"/>
  <path id="Path_7" data-name="Path 7" d="M16.176-19.433v3.441H10.362V0H6.275V-15.992H.435v-3.441ZM26.67-2.9A4.638,4.638,0,0,0,30.5-4.68a7.953,7.953,0,0,0,1.417-5.062A7.958,7.958,0,0,0,30.5-14.8a4.632,4.632,0,0,0-3.83-1.786,4.694,4.694,0,0,0-3.85,1.78,7.875,7.875,0,0,0-1.437,5.063A7.875,7.875,0,0,0,22.821-4.68,4.694,4.694,0,0,0,26.67-2.9Zm9.308-6.842q0,5.234-2.94,8.016A8.474,8.474,0,0,1,26.67.541,8.474,8.474,0,0,1,20.3-1.727Q17.35-4.509,17.35-9.743q0-5.339,2.953-8.016a8.474,8.474,0,0,1,6.368-2.268,8.474,8.474,0,0,1,6.368,2.268Q35.978-15.082,35.978-9.743Zm5.748-9.69L44.3-8.306l.554,3.1.567-3.032,2.188-11.193h4.285L54.2-8.306l.593,3.1.593-2.979,2.6-11.246h4.126L56.637,0H52.761L50.414-11.364l-.686-3.757-.686,3.757L46.7,0H42.926L37.415-19.433Zm37.2,3.441H68.647v4.126h9.439V-8.49H68.647v5H79.4V0H64.679V-19.433H78.93Zm7.7-.066v5.221h4.6a5.128,5.128,0,0,0,2.057-.316A2.165,2.165,0,0,0,94.5-13.342a2.415,2.415,0,0,0-1.173-2.373,4.434,4.434,0,0,0-1.978-.343Zm5.563-3.375a8.88,8.88,0,0,1,3.144.5A4.912,4.912,0,0,1,97.2-17.574a6.017,6.017,0,0,1,1,1.635,5.328,5.328,0,0,1,.369,2.043,5.822,5.822,0,0,1-.7,2.722,3.905,3.905,0,0,1-2.307,1.892,3.628,3.628,0,0,1,1.905,1.536,6.394,6.394,0,0,1,.56,3.039V-3.4A9.983,9.983,0,0,0,98.139-1.6a1.622,1.622,0,0,0,.738,1.107V0H94.408q-.185-.646-.264-1.042a9.569,9.569,0,0,1-.171-1.674l-.026-1.806A3.529,3.529,0,0,0,93.267-7a3.6,3.6,0,0,0-2.446-.62H86.629V0H82.661V-19.433Zm16.532,9.875q0-5.089,2.729-7.844a8.132,8.132,0,0,1,6.038-2.4q4.9,0,7.172,3.217a6.964,6.964,0,0,1,1.345,3.625h-4.061a5.484,5.484,0,0,0-1.015-2.109,4.129,4.129,0,0,0-3.283-1.266,4.069,4.069,0,0,0-3.494,1.786,8.587,8.587,0,0,0-1.279,5.056,7.537,7.537,0,0,0,1.351,4.9,4.27,4.27,0,0,0,3.434,1.628,3.928,3.928,0,0,0,3.256-1.4,6.07,6.07,0,0,0,1.028-2.254h4.021a8.723,8.723,0,0,1-2.7,5.168A7.9,7.9,0,0,1,117.716.541a8.382,8.382,0,0,1-6.592-2.689A10.765,10.765,0,0,1,108.725-9.558ZM134.38-7.343h4.931l-2.426-7.646Zm.25-12.089h4.588L146.1,0h-4.4l-1.252-3.995h-7.159L131.941,0H127.7Zm13.935,0h4.061V-3.494h9.624V0H148.566Zm15.649,9.875q0-5.089,2.729-7.844a8.132,8.132,0,0,1,6.038-2.4q4.9,0,7.172,3.217a6.964,6.964,0,0,1,1.345,3.625h-4.061a5.484,5.484,0,0,0-1.015-2.109,4.129,4.129,0,0,0-3.283-1.266,4.069,4.069,0,0,0-3.494,1.786,8.587,8.587,0,0,0-1.279,5.056,7.537,7.537,0,0,0,1.351,4.9,4.27,4.27,0,0,0,3.434,1.628,3.928,3.928,0,0,0,3.256-1.4,6.07,6.07,0,0,0,1.028-2.254h4.021a8.723,8.723,0,0,1-2.7,5.168A7.9,7.9,0,0,1,173.206.541a8.382,8.382,0,0,1-6.592-2.689A10.765,10.765,0,0,1,164.215-9.558Z" transform="translate(52 42)" fill="#1890ff"/>
  <path id="Path_6" data-name="Path 6" d="M.854-7.173H6.084v.879H1.8v2.178h3.96v.83H1.8V-.854H6.157V0H.854ZM7.988-1.392a.724.724,0,0,0,.278.6,1.032,1.032,0,0,0,.659.22,2,2,0,0,0,.9-.215,1.209,1.209,0,0,0,.732-1.167v-.708a1.5,1.5,0,0,1-.415.171,3.537,3.537,0,0,1-.5.1l-.532.068a2.036,2.036,0,0,0-.718.2A.78.78,0,0,0,7.988-1.392Zm2.129-1.777a.477.477,0,0,0,.405-.254.773.773,0,0,0,.059-.337.714.714,0,0,0-.32-.652,1.716,1.716,0,0,0-.916-.2,1.163,1.163,0,0,0-.977.371,1.221,1.221,0,0,0-.21.61h-.82a1.51,1.51,0,0,1,.627-1.345,2.576,2.576,0,0,1,1.4-.378,2.846,2.846,0,0,1,1.5.352,1.193,1.193,0,0,1,.571,1.094V-.9a.386.386,0,0,0,.056.22.271.271,0,0,0,.237.083q.059,0,.132-.007t.156-.022V.024A2.448,2.448,0,0,1,11.7.1a2.284,2.284,0,0,1-.293.015.723.723,0,0,1-.659-.322A1.244,1.244,0,0,1,10.6-.693a2.236,2.236,0,0,1-.771.61A2.386,2.386,0,0,1,8.721.176,1.648,1.648,0,0,1,7.532-.266,1.468,1.468,0,0,1,7.07-1.372,1.424,1.424,0,0,1,7.524-2.5a2.161,2.161,0,0,1,1.191-.493ZM13.4-1.641a1.278,1.278,0,0,0,.22.674,1.381,1.381,0,0,0,1.152.425,1.7,1.7,0,0,0,.859-.212A.705.705,0,0,0,16-1.411a.562.562,0,0,0-.3-.513,3.541,3.541,0,0,0-.752-.249l-.7-.176a3.406,3.406,0,0,1-.986-.371,1.109,1.109,0,0,1-.566-.986,1.507,1.507,0,0,1,.535-1.2,2.133,2.133,0,0,1,1.438-.459,2,2,0,0,1,1.7.693,1.5,1.5,0,0,1,.317.947h-.83a1.017,1.017,0,0,0-.21-.542,1.339,1.339,0,0,0-1.05-.347,1.255,1.255,0,0,0-.754.19.6.6,0,0,0-.256.5.619.619,0,0,0,.337.547,2.025,2.025,0,0,0,.576.215l.581.142a4.493,4.493,0,0,1,1.27.444,1.177,1.177,0,0,1,.513,1.06,1.615,1.615,0,0,1-.53,1.206A2.255,2.255,0,0,1,14.727.2a2.165,2.165,0,0,1-1.653-.53,2,2,0,0,1-.52-1.311Zm7.744-3.589h.972q-.186.5-.825,2.295-.479,1.348-.8,2.2A14.855,14.855,0,0,1,19.414,1.7a1.228,1.228,0,0,1-1.074.439,2.108,2.108,0,0,1-.286-.015,2.256,2.256,0,0,1-.247-.054v-.8a3.032,3.032,0,0,0,.332.078,1.3,1.3,0,0,0,.181.015.633.633,0,0,0,.359-.081.743.743,0,0,0,.193-.2q.024-.039.176-.4t.22-.537L17.334-5.229h1l1.4,4.258Zm4.917,0,1.006,4.121,1.021-4.121h.986l1.025,4.1,1.069-4.1h.879L30.527,0h-.913L28.55-4.048,27.52,0h-.913L25.1-5.229Zm7.49,3.838a.724.724,0,0,0,.278.6,1.032,1.032,0,0,0,.659.22,2,2,0,0,0,.9-.215,1.209,1.209,0,0,0,.732-1.167v-.708a1.5,1.5,0,0,1-.415.171,3.537,3.537,0,0,1-.5.1l-.532.068a2.036,2.036,0,0,0-.718.2A.78.78,0,0,0,33.55-1.392Zm2.129-1.777a.477.477,0,0,0,.405-.254.773.773,0,0,0,.059-.337.714.714,0,0,0-.32-.652,1.716,1.716,0,0,0-.916-.2,1.163,1.163,0,0,0-.977.371,1.221,1.221,0,0,0-.21.61H32.9a1.51,1.51,0,0,1,.627-1.345,2.576,2.576,0,0,1,1.4-.378,2.846,2.846,0,0,1,1.5.352A1.193,1.193,0,0,1,37-3.911V-.9a.386.386,0,0,0,.056.22A.271.271,0,0,0,37.29-.6q.059,0,.132-.007t.156-.022V.024A2.448,2.448,0,0,1,37.266.1a2.284,2.284,0,0,1-.293.015.723.723,0,0,1-.659-.322,1.244,1.244,0,0,1-.151-.483,2.236,2.236,0,0,1-.771.61,2.386,2.386,0,0,1-1.108.259,1.648,1.648,0,0,1-1.189-.442,1.468,1.468,0,0,1-.461-1.106A1.424,1.424,0,0,1,33.086-2.5a2.161,2.161,0,0,1,1.191-.493ZM41.7-5.229h.972q-.186.5-.825,2.295-.479,1.348-.8,2.2A14.855,14.855,0,0,1,39.976,1.7a1.228,1.228,0,0,1-1.074.439,2.108,2.108,0,0,1-.286-.015,2.256,2.256,0,0,1-.247-.054v-.8a3.032,3.032,0,0,0,.332.078,1.3,1.3,0,0,0,.181.015.633.633,0,0,0,.359-.081.743.743,0,0,0,.193-.2q.024-.039.176-.4t.22-.537L37.9-5.229h1l1.4,4.258Zm4.688-1.46h.889v1.46h.835v.718H47.28V-1.1a.369.369,0,0,0,.186.366.789.789,0,0,0,.342.054l.137,0q.073,0,.171-.012V0A1.962,1.962,0,0,1,47.8.063a2.994,2.994,0,0,1-.354.02.954.954,0,0,1-.835-.315,1.4,1.4,0,0,1-.22-.818V-4.512h-.708v-.718h.708ZM51.069-.566a1.212,1.212,0,0,0,1.2-.662A3.3,3.3,0,0,0,52.593-2.7a2.621,2.621,0,0,0-.234-1.191,1.318,1.318,0,0,0-1.279-.723A1.262,1.262,0,0,0,49.907-4a2.852,2.852,0,0,0-.366,1.484,2.481,2.481,0,0,0,.366,1.392A1.29,1.29,0,0,0,51.069-.566ZM51.1-5.381a2.368,2.368,0,0,1,1.709.674,2.631,2.631,0,0,1,.7,1.982A3.4,3.4,0,0,1,52.9-.635,2.226,2.226,0,0,1,50.986.19a2.155,2.155,0,0,1-1.714-.73,2.883,2.883,0,0,1-.635-1.96,3.119,3.119,0,0,1,.669-2.1A2.245,2.245,0,0,1,51.1-5.381Zm9.1,4.551a2.686,2.686,0,0,0,.811-.1,1.783,1.783,0,0,0,.928-.732,3,3,0,0,0,.415-1.113,4.246,4.246,0,0,0,.073-.752A3.5,3.5,0,0,0,61.9-5.6,1.957,1.957,0,0,0,60.2-6.338H58.472V-.83ZM57.5-7.173H60.4A2.738,2.738,0,0,1,62.7-6.123,3.87,3.87,0,0,1,63.423-3.7a4.835,4.835,0,0,1-.43,2.065A2.651,2.651,0,0,1,60.391,0H57.5Zm9.238,1.826a2.385,2.385,0,0,1,1.079.261,1.99,1.99,0,0,1,.8.676,2.333,2.333,0,0,1,.352.923,6.038,6.038,0,0,1,.078,1.152H65.205a2.237,2.237,0,0,0,.376,1.277,1.259,1.259,0,0,0,1.089.481,1.408,1.408,0,0,0,1.1-.454,1.531,1.531,0,0,0,.332-.61h.864A1.82,1.82,0,0,1,68.738-1a2.284,2.284,0,0,1-.432.579,2.048,2.048,0,0,1-.991.527A3.011,3.011,0,0,1,66.6.186a2.2,2.2,0,0,1-1.655-.71,2.764,2.764,0,0,1-.679-1.99,3.006,3.006,0,0,1,.684-2.046A2.255,2.255,0,0,1,66.733-5.347Zm1.4,2.314a2.277,2.277,0,0,0-.249-.913A1.276,1.276,0,0,0,66.68-4.58a1.337,1.337,0,0,0-1.016.437,1.651,1.651,0,0,0-.435,1.111Zm2.5,1.392a1.278,1.278,0,0,0,.22.674,1.381,1.381,0,0,0,1.152.425,1.7,1.7,0,0,0,.859-.212.705.705,0,0,0,.371-.657.562.562,0,0,0-.3-.513,3.541,3.541,0,0,0-.752-.249l-.7-.176a3.406,3.406,0,0,1-.986-.371,1.109,1.109,0,0,1-.566-.986,1.507,1.507,0,0,1,.535-1.2,2.133,2.133,0,0,1,1.438-.459,2,2,0,0,1,1.7.693,1.5,1.5,0,0,1,.317.947h-.83a1.017,1.017,0,0,0-.21-.542,1.339,1.339,0,0,0-1.05-.347,1.255,1.255,0,0,0-.754.19.6.6,0,0,0-.256.5.619.619,0,0,0,.337.547,2.025,2.025,0,0,0,.576.215l.581.142a4.493,4.493,0,0,1,1.27.444,1.177,1.177,0,0,1,.513,1.06,1.615,1.615,0,0,1-.53,1.206A2.255,2.255,0,0,1,71.968.2a2.165,2.165,0,0,1-1.653-.53,2,2,0,0,1-.52-1.311Zm4.478-3.564h.894V0h-.894Zm0-1.968h.894v1h-.894Zm4.067,1.851a1.906,1.906,0,0,1,1.074.3,2.413,2.413,0,0,1,.508.5v-.659h.811V-.425a3.507,3.507,0,0,1-.293,1.572,2.1,2.1,0,0,1-2.065,1.064A2.534,2.534,0,0,1,77.8,1.833,1.476,1.476,0,0,1,77.153.649h.894a.994.994,0,0,0,.254.542,1.3,1.3,0,0,0,.938.293A1.29,1.29,0,0,0,80.562.771a4.015,4.015,0,0,0,.171-1.5,1.724,1.724,0,0,1-.635.6,2.112,2.112,0,0,1-.981.2,2.1,2.1,0,0,1-1.487-.6,2.652,2.652,0,0,1-.637-1.995,3.021,3.021,0,0,1,.642-2.051A1.985,1.985,0,0,1,79.185-5.322Zm1.582,2.686a2.18,2.18,0,0,0-.4-1.44,1.283,1.283,0,0,0-1.021-.469,1.26,1.26,0,0,0-1.27.869A3.408,3.408,0,0,0,77.9-2.461a2.158,2.158,0,0,0,.359,1.345,1.159,1.159,0,0,0,.964.461,1.354,1.354,0,0,0,1.333-.854A2.756,2.756,0,0,0,80.767-2.637ZM82.9-5.229h.835v.742a2.342,2.342,0,0,1,.786-.659,2.1,2.1,0,0,1,.923-.2,1.522,1.522,0,0,1,1.5.776,2.757,2.757,0,0,1,.215,1.216V0H86.27V-3.3a1.785,1.785,0,0,0-.142-.771.858.858,0,0,0-.85-.488,1.73,1.73,0,0,0-.513.063,1.32,1.32,0,0,0-.635.43,1.294,1.294,0,0,0-.286.535,3.6,3.6,0,0,0-.066.789V0H82.9Zm10.552.845a3.717,3.717,0,0,0,.64-.532,1.1,1.1,0,0,0,.288-.737.783.783,0,0,0-.21-.547.73.73,0,0,0-.566-.229.8.8,0,0,0-.752.361.8.8,0,0,0-.107.405,1.1,1.1,0,0,0,.164.571A5.283,5.283,0,0,0,93.452-4.385ZM93.228-.605a1.7,1.7,0,0,0,.933-.249,2.037,2.037,0,0,0,.6-.557L93.14-3.389a4.936,4.936,0,0,0-.9.7,1.3,1.3,0,0,0-.322.894,1.026,1.026,0,0,0,.417.879A1.475,1.475,0,0,0,93.228-.605Zm-.576-3.384a3.686,3.686,0,0,1-.608-.879,1.734,1.734,0,0,1-.154-.688,1.538,1.538,0,0,1,.469-1.15,1.721,1.721,0,0,1,1.255-.457,1.567,1.567,0,0,1,1.167.425,1.394,1.394,0,0,1,.42,1.016,1.819,1.819,0,0,1-.435,1.206,4.09,4.09,0,0,1-.85.7l1.309,1.563q.132-.391.183-.583a5.5,5.5,0,0,0,.1-.54h.835a5.33,5.33,0,0,1-.332,1.321q-.249.632-.249.51L97.041,0H95.908l-.674-.82a3.526,3.526,0,0,1-.732.635,2.533,2.533,0,0,1-1.338.352,2.012,2.012,0,0,1-1.626-.6A2.056,2.056,0,0,1,91.03-1.8a1.959,1.959,0,0,1,.493-1.362A5.4,5.4,0,0,1,92.651-3.989Zm10.85-.151a2.18,2.18,0,0,0,.957-.171A.985.985,0,0,0,105-5.278a.932.932,0,0,0-.571-.947,2.568,2.568,0,0,0-.957-.137h-1.733v2.222Zm.327,3.311a1.478,1.478,0,0,0,1.274-.518,1.3,1.3,0,0,0,.239-.791,1.052,1.052,0,0,0-.7-1.064,2.643,2.643,0,0,0-.981-.151h-1.929V-.83Zm-3.047-6.343h3.081a2.043,2.043,0,0,1,1.792.752,1.738,1.738,0,0,1,.313,1.025,1.615,1.615,0,0,1-.386,1.113,1.885,1.885,0,0,1-.576.42,2.438,2.438,0,0,1,.825.474,1.719,1.719,0,0,1,.483,1.294,2,2,0,0,1-.435,1.255,2.447,2.447,0,0,1-2.065.84h-3.032Zm7.456,1.943v3.472a1.464,1.464,0,0,0,.127.654.886.886,0,0,0,.874.469,1.235,1.235,0,0,0,1.25-.82,3.255,3.255,0,0,0,.181-1.206V-5.229h.879V0h-.83l.01-.771a1.773,1.773,0,0,1-.425.5,1.869,1.869,0,0,1-1.221.41,1.575,1.575,0,0,1-1.523-.747,2.225,2.225,0,0,1-.22-1.069V-5.229Zm4.683.024h.894V0h-.894Zm0-1.968h.894v1h-.894Zm2.246,0h.879V0h-.879Zm2.754,4.619a2.592,2.592,0,0,0,.356,1.406,1.249,1.249,0,0,0,1.143.566,1.2,1.2,0,0,0,1-.525,2.479,2.479,0,0,0,.393-1.506,2.227,2.227,0,0,0-.405-1.467,1.264,1.264,0,0,0-1-.476,1.321,1.321,0,0,0-1.077.508A2.326,2.326,0,0,0,117.92-2.554Zm1.323-2.769a1.861,1.861,0,0,1,1.006.254,2.363,2.363,0,0,1,.532.513V-7.2h.845V0h-.791V-.728a1.9,1.9,0,0,1-.728.7,2.082,2.082,0,0,1-.962.215,1.948,1.948,0,0,1-1.514-.735,2.873,2.873,0,0,1-.64-1.956,3.376,3.376,0,0,1,.583-1.98A1.91,1.91,0,0,1,119.243-5.322Zm11.621-1.851v.854h-2.417V0h-.986V-6.318h-2.417v-.854ZM132.6-.566a1.212,1.212,0,0,0,1.2-.662,3.3,3.3,0,0,0,.325-1.472,2.621,2.621,0,0,0-.234-1.191,1.318,1.318,0,0,0-1.279-.723A1.262,1.262,0,0,0,131.44-4a2.852,2.852,0,0,0-.366,1.484,2.481,2.481,0,0,0,.366,1.392A1.29,1.29,0,0,0,132.6-.566Zm.034-4.814a2.368,2.368,0,0,1,1.709.674,2.631,2.631,0,0,1,.7,1.982,3.4,3.4,0,0,1-.615,2.09A2.226,2.226,0,0,1,132.52.19a2.155,2.155,0,0,1-1.714-.73,2.883,2.883,0,0,1-.635-1.96,3.119,3.119,0,0,1,.669-2.1A2.245,2.245,0,0,1,132.637-5.381Zm3.857.151L137.5-1.108l1.021-4.121h.986l1.025,4.1,1.069-4.1h.879L140.962,0h-.913l-1.064-4.048L137.954,0h-.913l-1.509-5.229Zm8.994-.117a2.385,2.385,0,0,1,1.079.261,1.99,1.99,0,0,1,.8.676,2.333,2.333,0,0,1,.352.923,6.038,6.038,0,0,1,.078,1.152H143.96a2.237,2.237,0,0,0,.376,1.277,1.259,1.259,0,0,0,1.089.481,1.408,1.408,0,0,0,1.1-.454,1.531,1.531,0,0,0,.332-.61h.864a1.82,1.82,0,0,1-.227.642,2.284,2.284,0,0,1-.432.579,2.048,2.048,0,0,1-.991.527,3.011,3.011,0,0,1-.718.078,2.2,2.2,0,0,1-1.655-.71,2.764,2.764,0,0,1-.679-1.99,3.006,3.006,0,0,1,.684-2.046A2.255,2.255,0,0,1,145.488-5.347Zm1.4,2.314a2.277,2.277,0,0,0-.249-.913,1.276,1.276,0,0,0-1.206-.635,1.337,1.337,0,0,0-1.016.437,1.651,1.651,0,0,0-.435,1.111Zm2.007-2.2h.835v.9a2,2,0,0,1,.5-.642,1.3,1.3,0,0,1,.923-.378l.083,0,.2.02v.928a1.313,1.313,0,0,0-.144-.02q-.066,0-.144,0a1.254,1.254,0,0,0-1.021.427,1.491,1.491,0,0,0-.356.984V0H148.9Z" transform="translate(68 13)" fill="#707070"/>
  <path id="Path_5" data-name="Path 5" d="M0,0H182" transform="translate(52.5 18)" fill="none" stroke="#e5e5e5" stroke-width="1"/>
  <path id="Icon_map-campground" data-name="Icon map-campground" d="M25.719,4.32a2.385,2.385,0,0,0-2.3,1.34L7.053,36.462H3.517a2.68,2.68,0,1,0,0,5.355H47.923a2.68,2.68,0,1,0,0-5.355H44.385L28.022,5.658A2.388,2.388,0,0,0,25.719,4.32Zm0,13.392,9.21,18.75H16.509Z" transform="translate(1.28 2.68)" fill="#1890ff"/>
</svg>
